# xmcd
#
# Track frame offsets: 
#        150
#        13174
#        29334
#        54580
#        67005
#        83082
#        102555
#        114561
#        127591
#        144081
#        160427
#        177211
#        201548
#        217674
#
# Disc length: 3143 seconds
#
# Revision: 0
# Processed by: cddbd v1.5.2PL0 Copyright (c) Steve Scherf et al.
# Submitted via: ExactAudioCopy v1.3
#
DISCID=bf0c450e
DTITLE=Brothers Osborne - Pawn Shop (Bonus Edition) [FLAC]
DYEAR=2017
DGENRE=Country
TTITLE0=Dirt Rich (Feat. Barry Dean)
TTITLE1=21 Summer (Feat. Craig Wiseman)
TTITLE2=Stay a Little Longer (Feat. Shane McAnally)
TTITLE3=Pawn Shop (Feat. Sean McConnell)
TTITLE4=Rum (Feat. Barry Dean)
TTITLE5=Loving Me Back (Feat. Casey Beathard)
TTITLE6=American Crazy (Feat. Ross Copperman)
TTITLE7=Greener Pastures (Feat. Maren Morris)
TTITLE8=Down Home (Feat. Jessi Alexander)
TTITLE9=TJ Osborne, Lisa Carver and Andi Zack - Heart Shaped Locket
TTITLE10=It Ain't My Fault (Feat. Jessi Alexander)
TTITLE11=Love The Lonely Out Of You [Bonus Track]
TTITLE12=Shoot From The Hip [Bonus Track]
TTITLE13=Arms Of Fire [Bonus Track]
EXTD=
EXTT0=
EXTT1=
EXTT2=
EXTT3=
EXTT4=
EXTT5=
EXTT6=
EXTT7=
EXTT8=
EXTT9=
EXTT10=
EXTT11=
EXTT12=
EXTT13=
PLAYORDER=
